<?xml version="1.0" encoding="utf-8"?>
<!-- Generator: Adobe Illustrator 21.0.0, SVG Export Plug-In . SVG Version: 6.00 Build 0)  -->
<svg version="1.1"
	 id="svg26211" inkscape:export-filename="/home/panos/Desktop/SweetieKitty Logos/sweetiekitty_logo_tag_line_new_2.png" inkscape:export-xdpi="89.199997" inkscape:export-ydpi="89.199997" inkscape:version="0.91 r13725" sodipodi:docname="sweetiekitty_logo_tag_line_new.svg" xmlns:cc="http://creativecommons.org/ns#" xmlns:dc="http://purl.org/dc/elements/1.1/" xmlns:inkscape="http://www.inkscape.org/namespaces/inkscape" xmlns:rdf="http://www.w3.org/1999/02/22-rdf-syntax-ns#" xmlns:sodipodi="http://sodipodi.sourceforge.net/DTD/sodipodi-0.dtd" xmlns:svg="http://www.w3.org/2000/svg"
	 xmlns="http://www.w3.org/2000/svg" xmlns:xlink="http://www.w3.org/1999/xlink" x="0px" y="0px" viewBox="0 0 229.5 71.6"
	 style="enable-background:new 0 0 229.5 71.6;" xml:space="preserve">
<style type="text/css">
	.st0{fill:#0C224F;stroke:#0C224F;stroke-miterlimit:10;}
	.st1{fill:#FFFFFF;stroke:#0C224F;stroke-miterlimit:10;}
	.st2{fill:none;stroke:#0C224F;stroke-width:0.9254;stroke-miterlimit:10;}
</style>
<sodipodi:namedview  bordercolor="#666666" borderlayer="false" borderopacity="0.4" fit-margin-bottom="5" fit-margin-left="5" fit-margin-right="5" fit-margin-top="5" gridtolerance="10" guidetolerance="10" id="namedview17" inkscape:current-layer="svg26211" inkscape:cx="158.52347" inkscape:cy="52.627499" inkscape:pageopacity="0" inkscape:pageshadow="2" inkscape:showpageshadow="false" inkscape:window-height="987" inkscape:window-maximized="0" inkscape:window-width="1911" inkscape:window-x="4" inkscape:window-y="27" inkscape:zoom="2.7618758" objecttolerance="10" pagecolor="#ffffff" showborder="true" showgrid="false" showguides="true" units="px">
	</sodipodi:namedview>
<g id="flowRoot4157" transform="translate(-82.457922,24.351703)">
</g>
<g id="text4144-4" transform="matrix(1.1652727,0,0,0.84080858,1.1516893,0)">
	<path id="path4196" inkscape:connector-curvature="0" class="st0" d="M11,69.6c0,0.4-0.1,0.7-0.2,1c-0.1,0.2-0.2,0.4-0.4,0.5
		c-0.1,0.1-0.3,0.2-0.5,0.2s-0.3,0.1-0.4,0.1c-0.1,0-0.2,0-0.4,0c-0.1,0-0.3-0.1-0.4-0.2c-0.1-0.1-0.2-0.2-0.3-0.4
		c-0.1-0.2-0.1-0.5-0.1-0.8c0-0.2,0-0.3,0.1-0.5c0-0.1,0.1-0.3,0.2-0.4C8.7,69,8.8,68.8,9,68.8c-0.1-0.2-0.2-0.4-0.3-0.5
		S8.5,68.1,8.4,68c-0.1-0.1-0.3-0.1-0.4-0.1c-0.2,0-0.4,0.1-0.6,0.3c-0.2,0.2-0.3,0.5-0.5,0.9c-0.1,0.4-0.2,0.8-0.3,1.3
		s-0.1,1.1-0.1,1.7s0,1.2,0.1,1.7c0,0.5,0.1,1,0.2,1.4c0.1,0.4,0.2,0.7,0.4,0.9c0.2,0.2,0.4,0.3,0.6,0.3c0.1,0,0.3,0,0.4-0.1
		c0.1,0,0.2-0.1,0.4-0.2C8.7,76,8.9,75.8,9,75.6c-0.2-0.1-0.4-0.2-0.5-0.4c-0.1-0.1-0.2-0.3-0.2-0.4c-0.1-0.2-0.1-0.3-0.1-0.5
		c0-0.3,0.1-0.5,0.2-0.7c0.1-0.2,0.2-0.3,0.4-0.4S9.1,73,9.3,73s0.3-0.1,0.4-0.1c0.1,0,0.2,0,0.4,0.1c0.1,0,0.3,0.1,0.4,0.2
		c0.1,0.1,0.3,0.3,0.3,0.5c0.1,0.2,0.2,0.5,0.2,0.9s-0.1,0.7-0.3,1.1c-0.2,0.4-0.4,0.7-0.7,1s-0.6,0.6-1,0.8
		c-0.4,0.2-0.8,0.3-1.2,0.3c-0.3,0-0.6,0-0.9-0.1c-0.3-0.1-0.6-0.2-0.8-0.4c-0.3-0.2-0.5-0.4-0.7-0.7c-0.2-0.3-0.4-0.7-0.6-1.1
		c-0.2-0.4-0.3-0.9-0.4-1.5c-0.1-0.6-0.1-1.2-0.1-2c0-0.7,0.1-1.4,0.2-1.9c0.1-0.6,0.3-1,0.4-1.4c0.2-0.4,0.4-0.7,0.7-1
		c0.2-0.3,0.5-0.5,0.8-0.6c0.3-0.2,0.6-0.3,0.9-0.3c0.3-0.1,0.6-0.1,0.9-0.1c0.4,0,0.8,0.1,1.2,0.2s0.7,0.4,1,0.6
		c0.3,0.3,0.5,0.6,0.7,0.9C10.9,68.8,11,69.2,11,69.6L11,69.6z"/>
	<path id="path4198" inkscape:connector-curvature="0" class="st0" d="M18.2,77.6c0-0.2-0.1-0.4-0.1-0.6S18,76.6,18,76.4
		c-0.3,0.4-0.6,0.7-1,0.9c-0.4,0.2-0.8,0.3-1.3,0.3c-0.2,0-0.5,0-0.7-0.1c-0.2-0.1-0.5-0.2-0.7-0.4c-0.2-0.2-0.4-0.4-0.5-0.8
		c-0.1-0.3-0.2-0.7-0.2-1.2c0-0.4,0.1-0.8,0.2-1.1c0.1-0.3,0.3-0.6,0.5-0.8c0.2-0.2,0.4-0.4,0.6-0.6c0.2-0.2,0.5-0.3,0.7-0.4
		s0.5-0.3,0.7-0.4s0.4-0.2,0.5-0.3c0.3-0.2,0.5-0.4,0.7-0.7c0.2-0.2,0.4-0.5,0.5-0.7c0-0.4-0.1-0.7-0.1-1c-0.1-0.3-0.1-0.5-0.2-0.6
		c-0.1-0.2-0.2-0.3-0.4-0.3c-0.1-0.1-0.3-0.1-0.5-0.1c-0.3,0-0.5,0.1-0.7,0.2c-0.2,0.1-0.3,0.3-0.5,0.4c0.1,0.1,0.3,0.2,0.3,0.3
		c0.1,0.1,0.1,0.2,0.2,0.3c0,0.1,0.1,0.2,0.1,0.3c0,0.4-0.1,0.7-0.3,0.9c-0.2,0.2-0.5,0.3-0.9,0.3c-0.2,0-0.4,0-0.5-0.1
		c-0.2-0.1-0.3-0.2-0.4-0.4c-0.1-0.2-0.2-0.3-0.3-0.6c-0.1-0.2-0.1-0.4-0.1-0.7c0-0.3,0.1-0.5,0.2-0.8s0.3-0.5,0.5-0.8
		c0.3-0.2,0.6-0.4,1-0.6c0.4-0.2,0.9-0.2,1.4-0.2c0.5,0,1,0.1,1.4,0.3c0.4,0.2,0.7,0.5,1,0.9s0.4,0.8,0.6,1.2c0.1,0.5,0.2,1,0.2,1.5
		c0,0.4,0,0.8,0,1.2c0,0.4,0,0.9,0,1.4c0,0.4,0,0.8,0,1.2c0,0.4,0,0.8,0,1.1c0,0.4,0,0.7,0.1,1c0,0.3,0.1,0.6,0.1,0.9L18.2,77.6
		L18.2,77.6z M18,72.3c-0.2,0.3-0.4,0.5-0.7,0.6c-0.2,0.1-0.4,0.3-0.6,0.4c-0.2,0.2-0.4,0.3-0.6,0.5c-0.2,0.2-0.3,0.4-0.4,0.5
		c-0.1,0.2-0.2,0.4-0.2,0.6c0,0.3,0.1,0.5,0.2,0.7c0.1,0.2,0.3,0.3,0.6,0.3c0.2,0,0.4-0.1,0.6-0.2c0.2-0.1,0.3-0.3,0.5-0.4
		c0.1-0.2,0.3-0.4,0.3-0.6c0.1-0.2,0.2-0.4,0.2-0.6L18,72.3L18,72.3z"/>
	<path id="path4200" inkscape:connector-curvature="0" class="st0" d="M26.5,63.6c0,0.6-0.1,1.2-0.1,1.8c0,0.6-0.1,1.2-0.1,1.8
		c0.3,0,0.5,0,0.8,0s0.5,0,0.8,0v2.3c-0.3,0-0.6-0.1-0.9-0.1s-0.6-0.1-0.8-0.1c0,0.5,0,1,0,1.5s0,1,0,1.5c0,0.9,0,1.8,0,2.7
		s0.1,1.8,0.1,2.7H24c0.1-1.4,0.1-2.8,0.2-4.2c0.1-1.4,0.1-2.8,0.1-4.2c-0.3,0-0.5,0-0.8,0s-0.5,0-0.8,0l0.1-2.1c0.2,0,0.5,0,0.7,0
		s0.5,0,0.7,0c0-0.6,0-1.2,0-1.8c0-0.6,0-1.2,0-1.8L26.5,63.6L26.5,63.6z"/>
	<path id="path4202" inkscape:connector-curvature="0" class="st0" d="M36.8,69.2c0,0.3-0.1,0.5-0.2,0.7s-0.2,0.3-0.4,0.5
		c-0.1,0.1-0.3,0.2-0.4,0.3c-0.2,0.1-0.3,0.1-0.4,0.1s-0.2,0-0.4-0.1c-0.1,0-0.3-0.1-0.4-0.2s-0.2-0.2-0.3-0.4
		c-0.1-0.2-0.1-0.4-0.1-0.7c0-0.1,0-0.3,0.1-0.4c0-0.1,0.1-0.2,0.2-0.4c0.1-0.1,0.2-0.2,0.4-0.3c-0.1-0.2-0.2-0.3-0.3-0.4
		s-0.2-0.1-0.3-0.2c-0.1,0-0.2-0.1-0.3-0.1c-0.2,0-0.4,0-0.5,0.1s-0.3,0.2-0.4,0.3c-0.1,0.1-0.2,0.3-0.2,0.4
		c-0.1,0.2-0.1,0.3-0.1,0.5s0,0.4,0,0.6s0.1,0.4,0.2,0.5c0.1,0.2,0.3,0.4,0.5,0.6s0.5,0.5,0.9,0.8s0.7,0.6,1,0.8
		c0.3,0.3,0.5,0.5,0.7,0.8s0.3,0.5,0.4,0.8s0.1,0.5,0.1,0.8c0,0.2,0,0.4-0.1,0.6c0,0.2-0.1,0.4-0.2,0.7c-0.1,0.2-0.2,0.4-0.4,0.7
		c-0.1,0.2-0.3,0.4-0.6,0.6c-0.2,0.2-0.5,0.3-0.8,0.4s-0.6,0.2-1,0.2c-0.6,0-1.1-0.1-1.5-0.3c-0.4-0.2-0.8-0.4-1-0.6
		c-0.3-0.3-0.5-0.5-0.6-0.8s-0.2-0.5-0.2-0.7s0-0.4,0.1-0.6s0.1-0.4,0.3-0.5c0.1-0.1,0.3-0.3,0.4-0.3c0.2-0.1,0.4-0.1,0.7-0.1
		c0.2,0,0.4,0,0.6,0.1s0.3,0.2,0.5,0.3c0.1,0.1,0.2,0.3,0.3,0.5s0.1,0.4,0.1,0.6c0,0.1,0,0.2-0.1,0.3c0,0.1-0.1,0.2-0.2,0.3
		c-0.1,0.1-0.2,0.2-0.3,0.3c0.1,0.1,0.2,0.1,0.2,0.2c0.1,0,0.2,0.1,0.2,0.1c0.1,0,0.1,0,0.2,0s0.2,0,0.3-0.1c0.1,0,0.2-0.1,0.3-0.2
		c0.1-0.1,0.2-0.2,0.2-0.3c0.1-0.1,0.1-0.3,0.1-0.5c0-0.2,0-0.4-0.1-0.5c0-0.2-0.1-0.3-0.2-0.5s-0.3-0.4-0.4-0.6
		c-0.2-0.2-0.5-0.4-0.8-0.7c-0.3-0.3-0.6-0.6-0.9-0.8c-0.3-0.3-0.5-0.6-0.6-0.9c-0.2-0.3-0.3-0.6-0.4-0.9s-0.1-0.7-0.1-1.1
		s0.1-0.8,0.2-1.1c0.2-0.4,0.4-0.7,0.7-0.9c0.3-0.3,0.6-0.5,1-0.7s0.8-0.3,1.3-0.3s0.9,0.1,1.3,0.2s0.7,0.4,0.9,0.6
		c0.2,0.3,0.4,0.6,0.5,0.9S36.8,68.8,36.8,69.2L36.8,69.2z"/>
	<path id="path4204" inkscape:connector-curvature="0" class="st0" d="M53.8,63.8c-0.1,1.7-0.2,3.5-0.3,5.2
		c-0.1,1.7-0.1,3.4-0.1,5.2c0,1.2,0,2.3,0.1,3.5h-2l0.1-1.8c-0.2,0.4-0.5,0.8-0.7,1c-0.3,0.2-0.5,0.4-0.7,0.5s-0.5,0.2-0.7,0.2
		c-0.3,0-0.6-0.1-0.9-0.3s-0.6-0.5-0.8-0.9s-0.5-1-0.6-1.7C47,74,47,73.1,47,72c0-0.7,0-1.3,0.1-1.9c0.1-0.5,0.2-1,0.3-1.4
		s0.3-0.7,0.5-1s0.4-0.5,0.6-0.7s0.5-0.3,0.7-0.4s0.5-0.1,0.7-0.1s0.3,0.1,0.5,0.1c0.2,0.1,0.3,0.1,0.5,0.3c0.2,0.1,0.4,0.3,0.6,0.5
		c0-1.3-0.1-2.6-0.2-4L53.8,63.8L53.8,63.8z M51.5,72.9c0-1.2,0-2.3-0.1-3.5c-0.1-0.1-0.1-0.2-0.2-0.3C51.1,69,51,68.9,51,68.8
		c-0.1-0.1-0.2-0.2-0.3-0.2c-0.1-0.1-0.2-0.1-0.3-0.1c-0.2,0-0.3,0.1-0.5,0.2s-0.3,0.3-0.5,0.6c-0.1,0.3-0.3,0.7-0.3,1.1
		C49,70.9,49,71.5,49,72.2c0,0.7,0,1.2,0.1,1.6s0.1,0.8,0.2,1c0.1,0.3,0.2,0.4,0.3,0.5c0.1,0.1,0.3,0.2,0.4,0.2
		c0.2,0,0.4-0.1,0.6-0.2c0.2-0.2,0.3-0.3,0.4-0.6c0.1-0.2,0.2-0.4,0.3-0.7c0.1-0.2,0.1-0.4,0.2-0.6C51.5,73.6,51.5,72.9,51.5,72.9z"
		/>
	<path id="path4206" inkscape:connector-curvature="0" class="st0" d="M63.2,75.3c0,0.4-0.1,0.7-0.2,1c-0.2,0.3-0.4,0.6-0.7,0.8
		c-0.3,0.2-0.6,0.4-1,0.5s-0.8,0.2-1.2,0.2c-0.3,0-0.6,0-0.9-0.1s-0.6-0.2-0.8-0.4c-0.3-0.2-0.5-0.4-0.7-0.7
		c-0.2-0.3-0.4-0.7-0.6-1.1c-0.2-0.4-0.3-0.9-0.4-1.5s-0.1-1.2-0.1-2c0-0.7,0-1.3,0.1-1.9c0.1-0.5,0.2-1,0.4-1.4
		c0.2-0.4,0.4-0.7,0.6-1s0.5-0.5,0.7-0.7c0.3-0.2,0.5-0.3,0.8-0.4s0.6-0.1,0.8-0.1c0.4,0,0.8,0.1,1.1,0.2c0.4,0.1,0.7,0.3,0.9,0.6
		s0.5,0.6,0.6,0.9c0.2,0.4,0.2,0.8,0.2,1.3c0,0.4-0.1,0.9-0.3,1.3c-0.2,0.4-0.4,0.9-0.8,1.2c-0.3,0.4-0.8,0.7-1.3,1.1
		c-0.5,0.3-1.1,0.6-1.8,0.8c0,0.4,0.1,0.7,0.2,1s0.2,0.6,0.3,0.8c0.1,0.2,0.2,0.4,0.4,0.5c0.1,0.1,0.3,0.2,0.5,0.2
		c0.1,0,0.2,0,0.3-0.1c0.1,0,0.2-0.1,0.3-0.1c0.1-0.1,0.2-0.2,0.3-0.3c-0.2-0.1-0.3-0.2-0.4-0.3c-0.1-0.1-0.1-0.2-0.2-0.3
		c0-0.1-0.1-0.2-0.1-0.4c0-0.3,0.1-0.5,0.2-0.7s0.2-0.3,0.4-0.4c0.2-0.1,0.3-0.2,0.5-0.2s0.3-0.1,0.4-0.1s0.2,0,0.4,0.1
		c0.1,0,0.3,0.1,0.4,0.2s0.3,0.3,0.3,0.5C63.2,74.7,63.2,74.9,63.2,75.3L63.2,75.3z M61,69.7c0-0.2,0-0.4-0.1-0.6
		c0-0.2-0.1-0.4-0.2-0.5s-0.2-0.3-0.3-0.3c-0.1-0.1-0.2-0.1-0.4-0.1c-0.2,0-0.4,0.1-0.6,0.3c-0.2,0.2-0.3,0.5-0.4,0.9
		s-0.2,0.8-0.2,1.3s-0.1,1-0.1,1.5v0.7c0.3-0.2,0.6-0.4,0.8-0.6c0.3-0.2,0.5-0.5,0.7-0.7c0.2-0.3,0.3-0.6,0.4-0.9
		C60.9,70.3,61,70,61,69.7L61,69.7z"/>
	<path id="path4208" inkscape:connector-curvature="0" class="st0" d="M72.3,69.2c0,0.3-0.1,0.5-0.2,0.7s-0.2,0.3-0.4,0.5
		c-0.1,0.1-0.3,0.2-0.4,0.3c-0.2,0.1-0.3,0.1-0.4,0.1s-0.2,0-0.4-0.1c-0.1,0-0.3-0.1-0.4-0.2s-0.2-0.2-0.3-0.4
		c-0.1-0.2-0.1-0.4-0.1-0.7c0-0.1,0-0.3,0.1-0.4c0-0.1,0.1-0.2,0.2-0.4c0.1-0.1,0.2-0.2,0.4-0.3c-0.1-0.2-0.2-0.3-0.3-0.4
		c-0.1-0.1-0.2-0.1-0.3-0.2c-0.1,0-0.2-0.1-0.3-0.1c-0.2,0-0.4,0-0.5,0.1s-0.3,0.2-0.4,0.3c-0.1,0.1-0.2,0.3-0.2,0.4
		c-0.1,0.2-0.1,0.3-0.1,0.5s0,0.4,0,0.6s0.1,0.4,0.2,0.5c0.1,0.2,0.3,0.4,0.5,0.6s0.5,0.5,0.9,0.8s0.7,0.6,1,0.8
		c0.3,0.3,0.5,0.5,0.7,0.8s0.3,0.5,0.4,0.8s0.1,0.5,0.1,0.8c0,0.2,0,0.4-0.1,0.6c0,0.2-0.1,0.4-0.2,0.7c-0.1,0.2-0.2,0.4-0.4,0.7
		c-0.1,0.2-0.3,0.4-0.6,0.6c-0.2,0.2-0.5,0.3-0.8,0.4s-0.6,0.2-1,0.2c-0.6,0-1.1-0.1-1.5-0.3c-0.4-0.2-0.8-0.4-1-0.6
		c-0.3-0.3-0.5-0.5-0.6-0.8s-0.2-0.5-0.2-0.7s0-0.4,0.1-0.6s0.1-0.4,0.3-0.5c0.1-0.1,0.3-0.3,0.4-0.3c0.2-0.1,0.4-0.1,0.7-0.1
		c0.2,0,0.4,0,0.6,0.1s0.3,0.2,0.5,0.3c0.1,0.1,0.2,0.3,0.3,0.5s0.1,0.4,0.1,0.6c0,0.1,0,0.2-0.1,0.3c0,0.1-0.1,0.2-0.2,0.3
		c-0.1,0.1-0.2,0.2-0.3,0.3c0.1,0.1,0.2,0.1,0.2,0.2c0.1,0,0.2,0.1,0.2,0.1c0.1,0,0.1,0,0.2,0s0.2,0,0.3-0.1c0.1,0,0.2-0.1,0.3-0.2
		c0.1-0.1,0.2-0.2,0.2-0.3c0.1-0.1,0.1-0.3,0.1-0.5c0-0.2,0-0.4-0.1-0.5c0-0.2-0.1-0.3-0.2-0.5s-0.3-0.4-0.4-0.6
		c-0.2-0.2-0.5-0.4-0.8-0.7c-0.3-0.3-0.6-0.6-0.9-0.8c-0.3-0.3-0.5-0.6-0.6-0.9c-0.2-0.3-0.3-0.6-0.4-0.9s-0.1-0.7-0.1-1.1
		s0.1-0.8,0.2-1.1c0.2-0.4,0.4-0.7,0.7-0.9c0.3-0.3,0.6-0.5,1-0.7s0.8-0.3,1.3-0.3s0.9,0.1,1.3,0.2s0.7,0.4,0.9,0.6
		c0.2,0.3,0.4,0.6,0.5,0.9S72.3,68.8,72.3,69.2L72.3,69.2z"/>
	<path id="path4210" inkscape:connector-curvature="0" class="st0" d="M81.7,75.3c0,0.4-0.1,0.7-0.2,1c-0.2,0.3-0.4,0.6-0.7,0.8
		c-0.3,0.2-0.6,0.4-1,0.5s-0.8,0.2-1.2,0.2c-0.3,0-0.6,0-0.9-0.1s-0.6-0.2-0.8-0.4c-0.3-0.2-0.5-0.4-0.7-0.7s-0.4-0.7-0.6-1.1
		c-0.2-0.4-0.3-0.9-0.4-1.5s-0.1-1.2-0.1-2c0-0.7,0-1.3,0.1-1.9c0.1-0.5,0.2-1,0.4-1.4c0.2-0.4,0.4-0.7,0.6-1s0.5-0.5,0.7-0.7
		c0.3-0.2,0.5-0.3,0.8-0.4s0.6-0.1,0.8-0.1c0.4,0,0.8,0.1,1.1,0.2c0.4,0.1,0.7,0.3,0.9,0.6s0.5,0.6,0.6,0.9c0.2,0.4,0.2,0.8,0.2,1.3
		c0,0.4-0.1,0.9-0.3,1.3c-0.2,0.4-0.4,0.9-0.8,1.2c-0.3,0.4-0.8,0.7-1.3,1.1c-0.5,0.3-1.1,0.6-1.8,0.8c0,0.4,0.1,0.7,0.2,1
		s0.2,0.6,0.3,0.8c0.1,0.2,0.2,0.4,0.4,0.5c0.1,0.1,0.3,0.2,0.5,0.2c0.1,0,0.2,0,0.3-0.1c0.1,0,0.2-0.1,0.3-0.1
		c0.1-0.1,0.2-0.2,0.3-0.3c-0.2-0.1-0.3-0.2-0.4-0.3c-0.1-0.1-0.1-0.2-0.2-0.3c0-0.1-0.1-0.2-0.1-0.4c0-0.3,0.1-0.5,0.2-0.7
		s0.2-0.3,0.4-0.4c0.2-0.1,0.3-0.2,0.5-0.2s0.3-0.1,0.4-0.1s0.2,0,0.4,0.1c0.1,0,0.3,0.1,0.4,0.2s0.3,0.3,0.3,0.5
		C81.6,74.7,81.7,74.9,81.7,75.3L81.7,75.3z M79.4,69.7c0-0.2,0-0.4-0.1-0.6c0-0.2-0.1-0.4-0.2-0.5s-0.2-0.3-0.3-0.3
		c-0.1-0.1-0.2-0.1-0.4-0.1c-0.2,0-0.4,0.1-0.6,0.3c-0.2,0.2-0.3,0.5-0.4,0.9s-0.2,0.8-0.2,1.3s-0.1,1-0.1,1.5v0.7
		c0.3-0.2,0.6-0.4,0.8-0.6c0.3-0.2,0.5-0.5,0.7-0.7c0.2-0.3,0.3-0.6,0.4-0.9C79.4,70.3,79.4,70,79.4,69.7L79.4,69.7z"/>
	<path id="path4212" inkscape:connector-curvature="0" class="st0" d="M86.9,77.6l-2.4,0.2c0.1-1.1,0.2-2.1,0.2-3.1c0-1,0.1-2,0.1-3
		c0-0.7,0-1.4,0-2.1s-0.1-1.4-0.1-2.2l2-0.1c0,0.1,0,0.3,0,0.4s0,0.2,0,0.4c0.2-0.3,0.4-0.6,0.7-0.8c0.3-0.2,0.5-0.3,0.7-0.4
		s0.5-0.2,0.7-0.2c0.4,0,0.8,0.1,1.1,0.2s0.6,0.3,0.8,0.5s0.3,0.4,0.4,0.7c0.1,0.3,0.1,0.5,0.1,0.8s0,0.5-0.1,0.8s-0.1,0.5-0.3,0.7
		c-0.1,0.2-0.3,0.4-0.5,0.5s-0.5,0.2-0.8,0.2s-0.6-0.1-0.7-0.2s-0.3-0.2-0.4-0.4c-0.1-0.2-0.1-0.3-0.2-0.5c0-0.2,0-0.3,0-0.4
		s0-0.2,0-0.3c0-0.1,0.1-0.2,0.1-0.3c0.1-0.1,0.1-0.2,0.2-0.3c0.1-0.1,0.2-0.2,0.3-0.3h-0.1h-0.1c-0.3,0-0.6,0.1-0.8,0.3
		c-0.2,0.2-0.4,0.4-0.6,0.8c-0.2,0.3-0.3,0.7-0.4,1.2c-0.1,0.5-0.2,0.9-0.2,1.5c0,0.9,0.1,1.8,0.1,2.8
		C86.8,75.7,86.8,76.6,86.9,77.6L86.9,77.6z"/>
	<path id="path4214" inkscape:connector-curvature="0" class="st0" d="M100.9,67.3c-0.3,0.9-0.6,1.8-0.8,2.6
		c-0.3,0.8-0.5,1.7-0.7,2.5s-0.4,1.7-0.6,2.5c-0.2,0.8-0.4,1.7-0.6,2.6l-2.6,0.1c-0.2-0.9-0.3-1.7-0.5-2.6c-0.2-0.8-0.3-1.7-0.5-2.5
		S94.2,70.8,94,70c-0.2-0.8-0.4-1.7-0.7-2.6l2.6-0.1c0.1,1.3,0.3,2.6,0.5,3.9s0.4,2.6,0.6,3.9c0.3-1.3,0.5-2.6,0.7-4
		c0.2-1.3,0.3-2.7,0.4-4L100.9,67.3L100.9,67.3z"/>
	<path id="path4216" inkscape:connector-curvature="0" class="st0" d="M109.7,75.3c0,0.4-0.1,0.7-0.2,1c-0.2,0.3-0.4,0.6-0.7,0.8
		c-0.3,0.2-0.6,0.4-1,0.5s-0.8,0.2-1.2,0.2c-0.3,0-0.6,0-0.9-0.1c-0.3-0.1-0.6-0.2-0.8-0.4c-0.3-0.2-0.5-0.4-0.7-0.7
		c-0.2-0.3-0.4-0.7-0.6-1.1c-0.2-0.4-0.3-0.9-0.4-1.5c-0.1-0.6-0.1-1.2-0.1-2c0-0.7,0-1.3,0.1-1.9c0.1-0.5,0.2-1,0.4-1.4
		s0.4-0.7,0.6-1c0.2-0.3,0.5-0.5,0.7-0.7c0.3-0.2,0.5-0.3,0.8-0.4s0.6-0.1,0.8-0.1c0.4,0,0.8,0.1,1.1,0.2c0.4,0.1,0.7,0.3,0.9,0.6
		s0.5,0.6,0.6,0.9c0.2,0.4,0.2,0.8,0.2,1.3c0,0.4-0.1,0.9-0.3,1.3s-0.4,0.9-0.8,1.2c-0.3,0.4-0.8,0.7-1.3,1.1
		c-0.5,0.3-1.1,0.6-1.8,0.8c0,0.4,0.1,0.7,0.2,1c0.1,0.3,0.2,0.6,0.3,0.8s0.2,0.4,0.4,0.5c0.1,0.1,0.3,0.2,0.5,0.2
		c0.1,0,0.2,0,0.3-0.1c0.1,0,0.2-0.1,0.3-0.1c0.1-0.1,0.2-0.2,0.3-0.3c-0.2-0.1-0.3-0.2-0.4-0.3c-0.1-0.1-0.1-0.2-0.2-0.3
		c0-0.1-0.1-0.2-0.1-0.4c0-0.3,0.1-0.5,0.2-0.7c0.1-0.2,0.2-0.3,0.4-0.4s0.3-0.2,0.5-0.2s0.3-0.1,0.4-0.1c0.1,0,0.2,0,0.4,0.1
		c0.1,0,0.3,0.1,0.4,0.2c0.1,0.1,0.3,0.3,0.3,0.5C109.7,74.7,109.7,74.9,109.7,75.3L109.7,75.3z M107.5,69.7c0-0.2,0-0.4-0.1-0.6
		c0-0.2-0.1-0.4-0.2-0.5c-0.1-0.1-0.2-0.3-0.3-0.3c-0.1-0.1-0.2-0.1-0.4-0.1s-0.4,0.1-0.6,0.3c-0.2,0.2-0.3,0.5-0.4,0.9
		c-0.1,0.4-0.2,0.8-0.2,1.3s-0.1,1-0.1,1.5v0.7c0.3-0.2,0.6-0.4,0.8-0.6c0.3-0.2,0.5-0.5,0.7-0.7c0.2-0.3,0.3-0.6,0.4-0.9
		C107.5,70.3,107.5,70,107.5,69.7L107.5,69.7z"/>
	<path id="path4218" inkscape:connector-curvature="0" class="st0" d="M122.3,63.7c-0.1,0.8-0.1,1.6-0.2,2.3
		c-0.1,0.8-0.1,1.5-0.1,2.3c0.2-0.4,0.4-0.6,0.7-0.8c0.2-0.2,0.5-0.4,0.7-0.4c0.2-0.1,0.5-0.2,0.7-0.2c0.4,0,0.8,0.1,1.1,0.3
		c0.3,0.2,0.6,0.5,0.8,0.9s0.4,1,0.5,1.7s0.2,1.6,0.2,2.7c0,1-0.1,1.8-0.3,2.5c-0.2,0.7-0.4,1.2-0.7,1.6s-0.6,0.7-1,0.9
		c-0.4,0.2-0.7,0.3-1.1,0.3c0,0-0.1,0-0.2,0c-0.1,0-0.3-0.1-0.4-0.1c-0.2-0.1-0.4-0.2-0.6-0.3c-0.2-0.1-0.4-0.4-0.6-0.6v1h-2
		c0.1-0.9,0.1-1.7,0.1-2.6c0-0.9,0-1.7,0-2.6c0-1.5,0-2.9-0.1-4.3c0-1.4-0.1-2.9-0.2-4.3L122.3,63.7L122.3,63.7z M123,76.2L123,76.2
		c0.1,0,0.2,0,0.2,0c0.2,0,0.3-0.1,0.5-0.2s0.3-0.3,0.5-0.6c0.2-0.3,0.3-0.7,0.4-1.1c0.1-0.5,0.1-1.1,0.1-1.8c0-0.7,0-1.2-0.1-1.7
		c-0.1-0.4-0.1-0.8-0.3-1.1s-0.2-0.5-0.4-0.6c-0.1-0.1-0.3-0.2-0.4-0.2c-0.2,0-0.3,0-0.4,0.1c-0.1,0.1-0.3,0.2-0.4,0.3
		c-0.1,0.1-0.2,0.3-0.3,0.5s-0.2,0.4-0.2,0.5c-0.1,0.2-0.1,0.3-0.2,0.5c0,0.2-0.1,0.3-0.1,0.4c0,1.2-0.1,2.3-0.1,3.5
		c0.1,0.3,0.3,0.5,0.4,0.7c0.1,0.2,0.3,0.3,0.4,0.4C122.8,76.1,122.9,76.1,123,76.2L123,76.2z"/>
	<path id="path4220" inkscape:connector-curvature="0" class="st0" d="M136.2,75.3c0,0.4-0.1,0.7-0.2,1c-0.2,0.3-0.4,0.6-0.7,0.8
		c-0.3,0.2-0.6,0.4-1,0.5s-0.8,0.2-1.2,0.2c-0.3,0-0.6,0-0.9-0.1c-0.3-0.1-0.6-0.2-0.8-0.4c-0.3-0.2-0.5-0.4-0.7-0.7
		s-0.4-0.7-0.6-1.1c-0.2-0.4-0.3-0.9-0.4-1.5c-0.1-0.6-0.1-1.2-0.1-2c0-0.7,0-1.3,0.1-1.9c0.1-0.5,0.2-1,0.4-1.4s0.4-0.7,0.6-1
		c0.2-0.3,0.5-0.5,0.7-0.7c0.3-0.2,0.5-0.3,0.8-0.4s0.6-0.1,0.8-0.1c0.4,0,0.8,0.1,1.1,0.2c0.4,0.1,0.7,0.3,0.9,0.6s0.5,0.6,0.6,0.9
		c0.2,0.4,0.2,0.8,0.2,1.3c0,0.4-0.1,0.9-0.3,1.3s-0.4,0.9-0.8,1.2c-0.3,0.4-0.8,0.7-1.3,1.1c-0.5,0.3-1.1,0.6-1.8,0.8
		c0,0.4,0.1,0.7,0.2,1c0.1,0.3,0.2,0.6,0.3,0.8s0.2,0.4,0.4,0.5c0.1,0.1,0.3,0.2,0.5,0.2c0.1,0,0.2,0,0.3-0.1c0.1,0,0.2-0.1,0.3-0.1
		c0.1-0.1,0.2-0.2,0.3-0.3c-0.2-0.1-0.3-0.2-0.4-0.3c-0.1-0.1-0.1-0.2-0.2-0.3c0-0.1-0.1-0.2-0.1-0.4c0-0.3,0.1-0.5,0.2-0.7
		c0.1-0.2,0.2-0.3,0.4-0.4s0.3-0.2,0.5-0.2s0.3-0.1,0.4-0.1c0.1,0,0.2,0,0.4,0.1c0.1,0,0.3,0.1,0.4,0.2c0.1,0.1,0.3,0.3,0.3,0.5
		C136.1,74.7,136.2,74.9,136.2,75.3L136.2,75.3z M134,69.7c0-0.2,0-0.4-0.1-0.6c0-0.2-0.1-0.4-0.2-0.5c-0.1-0.1-0.2-0.3-0.3-0.3
		c-0.1-0.1-0.2-0.1-0.4-0.1s-0.4,0.1-0.6,0.3c-0.2,0.2-0.3,0.5-0.4,0.9c-0.1,0.4-0.2,0.8-0.2,1.3s-0.1,1-0.1,1.5v0.7
		c0.3-0.2,0.6-0.4,0.8-0.6c0.3-0.2,0.5-0.5,0.7-0.7c0.2-0.3,0.3-0.6,0.4-0.9C133.9,70.3,134,70,134,69.7L134,69.7z"/>
	<path id="path4222" inkscape:connector-curvature="0" class="st0" d="M142.3,63.6c0,0.6-0.1,1.2-0.1,1.8c0,0.6-0.1,1.2-0.1,1.8
		c0.3,0,0.5,0,0.8,0s0.5,0,0.8,0v2.3c-0.3,0-0.6-0.1-0.9-0.1c-0.3,0-0.6-0.1-0.8-0.1c0,0.5,0,1,0,1.5s0,1,0,1.5c0,0.9,0,1.8,0,2.7
		s0.1,1.8,0.1,2.7h-2.3c0.1-1.4,0.1-2.8,0.2-4.2c0.1-1.4,0.1-2.8,0.1-4.2c-0.3,0-0.5,0-0.8,0s-0.5,0-0.8,0l0.1-2.1
		c0.2,0,0.5,0,0.7,0s0.5,0,0.7,0c0-0.6,0-1.2,0-1.8c0-0.6,0-1.2,0-1.8L142.3,63.6L142.3,63.6z"/>
	<path id="path4224" inkscape:connector-curvature="0" class="st0" d="M149.7,63.6c0,0.6-0.1,1.2-0.1,1.8c0,0.6-0.1,1.2-0.1,1.8
		c0.3,0,0.5,0,0.8,0s0.5,0,0.8,0v2.3c-0.3,0-0.6-0.1-0.9-0.1c-0.3,0-0.6-0.1-0.8-0.1c0,0.5,0,1,0,1.5s0,1,0,1.5c0,0.9,0,1.8,0,2.7
		s0.1,1.8,0.1,2.7h-2.3c0.1-1.4,0.1-2.8,0.2-4.2c0.1-1.4,0.1-2.8,0.1-4.2c-0.3,0-0.5,0-0.8,0s-0.5,0-0.8,0l0.1-2.1
		c0.2,0,0.5,0,0.7,0s0.5,0,0.7,0c0-0.6,0-1.2,0-1.8c0-0.6,0-1.2,0-1.8L149.7,63.6L149.7,63.6z"/>
	<path id="path4226" inkscape:connector-curvature="0" class="st0" d="M160.2,75.3c0,0.4-0.1,0.7-0.2,1c-0.2,0.3-0.4,0.6-0.7,0.8
		s-0.6,0.4-1,0.5s-0.8,0.2-1.2,0.2c-0.3,0-0.6,0-0.9-0.1c-0.3-0.1-0.6-0.2-0.8-0.4c-0.3-0.2-0.5-0.4-0.7-0.7s-0.4-0.7-0.6-1.1
		c-0.2-0.4-0.3-0.9-0.4-1.5c-0.1-0.6-0.1-1.2-0.1-2c0-0.7,0-1.3,0.1-1.9c0.1-0.5,0.2-1,0.4-1.4s0.4-0.7,0.6-1
		c0.2-0.3,0.5-0.5,0.7-0.7c0.3-0.2,0.5-0.3,0.8-0.4s0.6-0.1,0.8-0.1c0.4,0,0.8,0.1,1.1,0.2c0.4,0.1,0.7,0.3,0.9,0.6s0.5,0.6,0.6,0.9
		c0.2,0.4,0.2,0.8,0.2,1.3c0,0.4-0.1,0.9-0.3,1.3s-0.4,0.9-0.8,1.2c-0.3,0.4-0.8,0.7-1.3,1.1c-0.5,0.3-1.1,0.6-1.8,0.8
		c0,0.4,0.1,0.7,0.2,1c0.1,0.3,0.2,0.6,0.3,0.8s0.2,0.4,0.4,0.5c0.1,0.1,0.3,0.2,0.5,0.2c0.1,0,0.2,0,0.3-0.1c0.1,0,0.2-0.1,0.3-0.1
		c0.1-0.1,0.2-0.2,0.3-0.3c-0.2-0.1-0.3-0.2-0.4-0.3c-0.1-0.1-0.1-0.2-0.2-0.3c0-0.1-0.1-0.2-0.1-0.4c0-0.3,0.1-0.5,0.2-0.7
		c0.1-0.2,0.2-0.3,0.4-0.4s0.3-0.2,0.5-0.2s0.3-0.1,0.4-0.1c0.1,0,0.2,0,0.4,0.1c0.1,0,0.3,0.1,0.4,0.2c0.1,0.1,0.3,0.3,0.3,0.5
		C160.1,74.7,160.2,74.9,160.2,75.3L160.2,75.3z M158,69.7c0-0.2,0-0.4-0.1-0.6c0-0.2-0.1-0.4-0.2-0.5c-0.1-0.1-0.2-0.3-0.3-0.3
		c-0.1-0.1-0.2-0.1-0.4-0.1s-0.4,0.1-0.6,0.3c-0.2,0.2-0.3,0.5-0.4,0.9c-0.1,0.4-0.2,0.8-0.2,1.3s-0.1,1-0.1,1.5v0.7
		c0.3-0.2,0.6-0.4,0.8-0.6c0.3-0.2,0.5-0.5,0.7-0.7c0.2-0.3,0.3-0.6,0.4-0.9C157.9,70.3,158,70,158,69.7L158,69.7z"/>
	<path id="path4228" inkscape:connector-curvature="0" class="st0" d="M165.4,77.6l-2.4,0.2c0.1-1.1,0.2-2.1,0.2-3.1
		c0-1,0.1-2,0.1-3c0-0.7,0-1.4,0-2.1s-0.1-1.4-0.1-2.2l2-0.1c0,0.1,0,0.3,0,0.4s0,0.2,0,0.4c0.2-0.3,0.4-0.6,0.7-0.8
		c0.3-0.2,0.5-0.3,0.7-0.4s0.5-0.2,0.7-0.2c0.4,0,0.8,0.1,1.1,0.2s0.6,0.3,0.8,0.5s0.3,0.4,0.4,0.7c0.1,0.3,0.1,0.5,0.1,0.8
		s0,0.5-0.1,0.8s-0.1,0.5-0.3,0.7c-0.1,0.2-0.3,0.4-0.5,0.5s-0.5,0.2-0.8,0.2s-0.6-0.1-0.7-0.2s-0.3-0.2-0.4-0.4
		c-0.1-0.2-0.1-0.3-0.2-0.5c0-0.2,0-0.3,0-0.4s0-0.2,0-0.3c0-0.1,0.1-0.2,0.1-0.3s0.1-0.2,0.2-0.3c0.1-0.1,0.2-0.2,0.3-0.3h-0.1
		h-0.1c-0.3,0-0.6,0.1-0.8,0.3c-0.2,0.2-0.4,0.4-0.6,0.8c-0.2,0.3-0.3,0.7-0.4,1.2c-0.1,0.5-0.2,0.9-0.2,1.5c0,0.9,0.1,1.8,0.1,2.8
		C165.3,75.7,165.4,76.6,165.4,77.6L165.4,77.6z"/>
</g>
<g id="text4148" transform="scale(1.0266783,0.97401496)">
	<path id="path4171" class="st1" d="M25.1,40.4c-0.2,1.8-0.6,3.3-1.2,4.5c-0.7,1.2-1.5,2.1-2.4,2.8c-1,0.7-2,1.2-3.2,1.5
		c-1.1,0.3-2.3,0.4-3.4,0.4c-1.2,0-2.3-0.2-3.5-0.5c-1.1-0.3-2.1-0.8-2.9-1.5c-0.8-0.7-1.5-1.5-2-2.5S5.8,43,5.8,41.6
		c0-1,0.2-1.9,0.5-2.5c0.3-0.7,0.7-1.2,1.2-1.6c0.5-0.4,1-0.7,1.5-0.9c0.5-0.2,1-0.3,1.5-0.3s0.9,0.1,1.4,0.2
		c0.5,0.1,0.9,0.4,1.4,0.7s0.7,0.8,1,1.4c0.3,0.6,0.4,1.3,0.4,2.1c0,0,0,0.2,0,0.5s-0.1,0.6-0.3,1c-0.2,0.3-0.4,0.7-0.7,1
		s-0.8,0.6-1.4,0.7c0.4,0.6,1,1,1.5,1.3c0.6,0.3,1.1,0.4,1.5,0.4s0.9-0.1,1.4-0.2c0.5-0.1,1-0.4,1.5-0.7s0.9-0.8,1.2-1.4
		c0.3-0.6,0.5-1.3,0.5-2.1c0-1-0.2-1.9-0.5-2.7s-0.8-1.5-1.3-2c-0.5-0.6-1.1-1.1-1.8-1.6c-0.7-0.5-1.3-0.9-1.9-1.2
		c-0.4-0.2-0.9-0.5-1.5-0.8c-0.6-0.3-1.2-0.7-1.8-1.2c-0.6-0.5-1.2-1-1.8-1.5c-0.6-0.6-1.2-1.2-1.6-2c-0.5-0.7-0.9-1.6-1.2-2.5
		c-0.3-0.9-0.4-1.9-0.4-3c0-1.6,0.3-3.1,0.9-4.3c0.6-1.2,1.3-2.3,2.2-3.1c0.9-0.8,2-1.4,3.1-1.9c1.2-0.4,2.3-0.6,3.5-0.6
		s2.3,0.2,3.4,0.5s2,0.8,2.8,1.4c0.8,0.6,1.5,1.3,2,2.2c0.5,0.8,0.7,1.8,0.7,2.8c0,1.1-0.2,1.9-0.5,2.5s-0.8,1.1-1.3,1.4
		c-0.5,0.3-1,0.5-1.5,0.6s-0.9,0.1-1.2,0.1c-0.4,0-0.8-0.1-1.2-0.2s-0.8-0.4-1.1-0.6c-0.3-0.3-0.6-0.6-0.8-1
		c-0.2-0.4-0.3-0.9-0.3-1.5c0-0.3,0.1-0.7,0.1-1c0.1-0.3,0.2-0.6,0.3-1c0.1-0.3,0.3-0.7,0.6-1c-0.3-0.2-0.5-0.4-0.7-0.5
		s-0.5-0.2-0.7-0.3c-0.2-0.1-0.5-0.1-0.7-0.1c-0.4,0-0.9,0.1-1.4,0.2c-0.4,0.2-0.9,0.4-1.2,0.7c-0.4,0.3-0.7,0.7-0.9,1.2
		s-0.4,1-0.4,1.7c0,0.8,0.1,1.5,0.4,2.1c0.2,0.6,0.6,1.2,1.1,1.8s1.2,1.2,1.9,1.7c0.8,0.6,1.7,1.2,2.8,1.9c1.3,0.8,2.4,1.6,3.3,2.4
		c0.9,0.8,1.7,1.6,2.3,2.5c0.6,0.9,1,1.8,1.3,2.7s0.4,2,0.4,3c0,0.2,0,0.4,0,0.6C25.1,39.9,25.1,40.1,25.1,40.4L25.1,40.4z"/>
	<path id="path4173" class="st1" d="M53,22.8c-0.1,1.4-0.1,2.7-0.1,4.1c0,1.3,0,2.6,0,3.7c0,1.3,0,2.5,0,3.7s-0.1,2.4-0.2,3.6
		c-0.1,1.2-0.2,2.4-0.4,3.6c-0.2,1.2-0.5,2.3-0.8,3.3s-0.8,1.9-1.3,2.7s-1.2,1.4-2,1.8c-0.8,0.5-1.7,0.7-2.7,0.7
		c-0.9-0.1-1.7-0.3-2.5-0.7c-0.3-0.2-0.7-0.4-1-0.7s-0.7-0.6-1-1s-0.6-0.9-0.9-1.5s-0.5-1.2-0.7-2c-0.5,1.4-1.1,2.4-1.8,3.2
		c-0.7,0.7-1.4,1.3-2,1.6c-0.7,0.4-1.5,0.7-2.2,0.7c-0.9,0-1.6-0.2-2.2-0.6s-1.1-0.9-1.5-1.6c-0.4-0.7-0.7-1.5-1-2.4
		s-0.4-1.9-0.5-2.9S28,40,27.9,38.8c0-1.1,0-2.3,0-3.4c0-0.4,0-0.7,0-0.8c0-0.2,0-0.3,0-0.5s0-0.4,0-0.7s0-0.8,0-1.4
		c0-0.6,0-1.5,0-2.5c0-1.1,0-2.5,0-4.2c0-0.5,0-1.1,0-1.6s0-1,0-1.5l6.8,0.2c-0.5,2.8-0.9,5.6-1.1,8.3s-0.3,5.4-0.3,8.1
		c0,1.8,0.1,3,0.4,3.8s0.7,1.2,1.4,1.2c0.3,0,0.6-0.2,0.9-0.5c0.3-0.4,0.5-0.8,0.7-1.4c0.2-0.6,0.4-1.3,0.5-2
		c0.2-0.8,0.3-1.5,0.4-2.3s0.2-1.6,0.2-2.4s0.1-1.5,0.1-2.1c0-0.7,0-1.3,0-1.9c0-0.6,0-1.3-0.1-1.9c0-0.7-0.1-1.4-0.1-2.1
		c0-0.8-0.1-1.6-0.2-2.5l6.1,0.3c-0.3,1.9-0.6,3.7-0.8,5.5c-0.2,1.7-0.3,3.5-0.3,5.2c0,1,0,2,0.1,3s0.2,1.9,0.4,2.8
		c0.2,0.8,0.5,1.5,0.8,2s0.7,0.8,1.1,0.8c0.6,0,1-0.3,1.4-1s0.6-1.6,0.8-2.6c0.2-1.1,0.3-2.3,0.4-3.7s0.1-2.7,0.1-4.1
		c0-0.1,0-0.5,0-1c0-0.5-0.1-1.2-0.1-2.1s-0.2-1.9-0.3-3.1s-0.3-2.5-0.5-4C46.5,22.7,53,22.8,53,22.8z"/>
	<path id="path4175" class="st1" d="M73.1,43.4c0,0.9-0.2,1.8-0.6,2.6s-1,1.5-1.7,2.1s-1.6,1.1-2.6,1.4c-1,0.3-2,0.5-3.1,0.5
		c-0.7,0-1.5-0.1-2.3-0.3s-1.5-0.5-2.2-1s-1.4-1.1-2-1.9C58,46,57.4,45.1,57,43.9c-0.4-1.1-0.8-2.4-1.1-4c-0.3-1.5-0.4-3.3-0.4-5.2
		c0-1.9,0.1-3.5,0.4-4.9s0.6-2.7,1.1-3.7c0.5-1.1,1-2,1.6-2.7s1.2-1.3,1.9-1.8c0.7-0.5,1.4-0.8,2.1-1s1.5-0.3,2.2-0.3
		c1.1,0,2.1,0.2,3,0.5c1,0.3,1.8,0.8,2.5,1.5s1.3,1.5,1.7,2.5c0.4,1,0.6,2.1,0.6,3.4c0,1.1-0.2,2.3-0.7,3.5
		c-0.5,1.2-1.2,2.3-2.1,3.3s-2.1,2-3.4,2.8s-2.9,1.5-4.7,2c0.1,1,0.2,1.9,0.4,2.7c0.2,0.8,0.4,1.5,0.7,2.1c0.3,0.6,0.6,1,1,1.3
		c0.4,0.3,0.8,0.5,1.3,0.5c0.3,0,0.6-0.1,0.9-0.2c0.3-0.1,0.5-0.2,0.8-0.4s0.5-0.4,0.7-0.8c-0.4-0.2-0.7-0.4-1-0.7
		c-0.2-0.3-0.4-0.6-0.5-0.9c-0.1-0.3-0.2-0.7-0.2-1c0-0.8,0.2-1.4,0.5-1.9s0.7-0.8,1.1-1.1s0.8-0.5,1.3-0.5c0.4-0.1,0.8-0.2,1-0.2
		c0.3,0,0.6,0.1,1,0.2c0.4,0.1,0.8,0.3,1.1,0.6c0.4,0.3,0.7,0.8,0.9,1.4C73,41.8,73.1,42.5,73.1,43.4z M67.3,28.5
		c0-0.6-0.1-1.1-0.2-1.6s-0.2-1-0.5-1.4c-0.2-0.4-0.4-0.7-0.7-0.9c-0.3-0.2-0.6-0.4-1-0.4c-0.7,0-1.2,0.3-1.6,0.9
		c-0.4,0.6-0.7,1.4-1,2.4s-0.4,2.1-0.5,3.4c-0.1,1.3-0.1,2.6-0.1,4v1.7c0.8-0.4,1.6-0.9,2.2-1.5c0.7-0.6,1.3-1.2,1.8-1.9
		c0.5-0.7,0.9-1.5,1.2-2.3C67.1,30.2,67.3,29.3,67.3,28.5z"/>
	<path id="path4177" class="st1" d="M92.7,43.4c0,0.9-0.2,1.8-0.6,2.6c-0.4,0.8-1,1.5-1.7,2.1s-1.6,1.1-2.6,1.4s-2,0.5-3.1,0.5
		c-0.7,0-1.5-0.1-2.3-0.3s-1.5-0.5-2.2-1s-1.4-1.1-2-1.9c-0.6-0.8-1.2-1.7-1.6-2.9c-0.4-1.1-0.8-2.4-1.1-4c-0.3-1.5-0.4-3.3-0.4-5.2
		c0-1.9,0.1-3.5,0.4-4.9s0.6-2.7,1.1-3.7c0.5-1.1,1-2,1.6-2.7c0.6-0.7,1.2-1.3,1.9-1.8s1.4-0.8,2.1-1c0.7-0.2,1.5-0.3,2.2-0.3
		c1.1,0,2.1,0.2,3,0.5c1,0.3,1.8,0.8,2.5,1.5s1.3,1.5,1.7,2.5s0.6,2.1,0.6,3.4c0,1.1-0.2,2.3-0.7,3.5C91,32.9,90.3,34,89.4,35
		c-0.9,1-2.1,2-3.4,2.8c-1.3,0.8-2.9,1.5-4.7,2c0.1,1,0.2,1.9,0.4,2.7s0.4,1.5,0.7,2.1s0.6,1,1,1.3s0.8,0.5,1.3,0.5
		c0.3,0,0.6-0.1,0.9-0.2c0.3-0.1,0.5-0.2,0.8-0.4s0.5-0.4,0.7-0.8c-0.4-0.2-0.7-0.4-1-0.7c-0.2-0.3-0.4-0.6-0.5-0.9
		c-0.1-0.3-0.2-0.7-0.2-1c0-0.8,0.2-1.4,0.5-1.9c0.3-0.5,0.7-0.8,1.1-1.1c0.4-0.3,0.8-0.5,1.3-0.5c0.4-0.1,0.8-0.2,1-0.2
		c0.3,0,0.6,0.1,1,0.2c0.4,0.1,0.8,0.3,1.1,0.6c0.4,0.3,0.7,0.8,0.9,1.4C92.5,41.8,92.7,42.5,92.7,43.4L92.7,43.4z M86.8,28.5
		c0-0.6-0.1-1.1-0.2-1.6c-0.1-0.5-0.2-1-0.5-1.4c-0.2-0.4-0.4-0.7-0.7-0.9s-0.6-0.4-1-0.4c-0.7,0-1.2,0.3-1.6,0.9
		c-0.4,0.6-0.7,1.4-1,2.4s-0.4,2.1-0.5,3.4c-0.1,1.3-0.1,2.6-0.1,4v1.7c0.8-0.4,1.6-0.9,2.2-1.5c0.7-0.6,1.3-1.2,1.8-1.9
		c0.5-0.7,0.9-1.5,1.2-2.3C86.6,30.2,86.8,29.3,86.8,28.5z"/>
	<path id="path4179" class="st1" d="M103.7,12.4c-0.1,1.6-0.2,3.2-0.3,4.8s-0.2,3.1-0.2,4.7c0.7,0,1.4-0.1,2.1-0.1
		c0.7,0,1.4-0.1,2.1-0.1l0,6.2c-0.8-0.1-1.5-0.2-2.3-0.3c-0.7-0.1-1.5-0.1-2.2-0.2c0,1.3-0.1,2.7-0.1,4c0,1.3,0,2.6,0,4
		c0,2.4,0,4.8,0.1,7.2s0.2,4.8,0.3,7.2L97,49.7c0.2-3.7,0.4-7.4,0.5-11.2c0.1-3.7,0.2-7.5,0.3-11.3c-0.7,0-1.3,0.1-2,0.1
		s-1.3,0.1-2,0.1l0.2-5.6c0.7,0,1.3,0.1,1.9,0.1c0.7,0,1.3,0,1.9,0.1c0-1.6,0-3.2,0-4.7c0-1.6-0.1-3.2-0.1-4.8L103.7,12.4
		L103.7,12.4z"/>
	<path id="path4181" class="st1" d="M116,15.2c0,0.5-0.1,1-0.3,1.5c-0.2,0.4-0.5,0.8-0.8,1.2c-0.3,0.4-0.7,0.6-1.2,0.8
		c-0.4,0.2-0.9,0.3-1.4,0.3s-1-0.1-1.5-0.3c-0.4-0.2-0.8-0.5-1.2-0.8c-0.3-0.3-0.6-0.7-0.8-1.2s-0.3-0.9-0.3-1.5
		c0-0.5,0.1-1,0.3-1.4c0.2-0.5,0.5-0.9,0.8-1.2c0.3-0.3,0.7-0.6,1.2-0.8c0.5-0.2,0.9-0.3,1.5-0.3c0.5,0,1,0.1,1.4,0.3
		c0.5,0.2,0.9,0.5,1.2,0.8s0.6,0.7,0.8,1.2C115.9,14.2,116,14.7,116,15.2z M116,22.4c-0.1,1.3-0.2,2.6-0.3,4.1
		c-0.1,1.4-0.2,2.9-0.2,4.5c0,1.5-0.1,3.1-0.1,4.6s-0.1,3-0.1,4.4s0,2.7,0,3.9s0,2.2,0,3.1v2.7l-5.4,0.2c0-1.1,0-2.2,0-3.2
		s0-2.1,0-3.1c0-1.8,0-3.5,0-5.2s-0.1-3.4-0.2-5.1c-0.1-1.7-0.2-3.5-0.3-5.2s-0.2-3.6-0.4-5.5C109,22.5,116,22.4,116,22.4z"/>
	<path id="path4183" class="st1" d="M136.1,43.4c0,0.9-0.2,1.8-0.6,2.6c-0.4,0.8-1,1.5-1.7,2.1s-1.6,1.1-2.6,1.4
		c-1,0.3-2,0.5-3.1,0.5c-0.7,0-1.5-0.1-2.3-0.3s-1.5-0.5-2.2-1s-1.4-1.1-2-1.9c-0.6-0.8-1.2-1.7-1.6-2.9c-0.4-1.1-0.8-2.4-1.1-4
		c-0.3-1.5-0.4-3.3-0.4-5.2c0-1.9,0.1-3.5,0.4-4.9c0.3-1.4,0.6-2.7,1.1-3.7c0.5-1.1,1-2,1.6-2.7s1.2-1.3,1.9-1.8s1.4-0.8,2.1-1
		c0.7-0.2,1.5-0.3,2.2-0.3c1.1,0,2.1,0.2,3,0.5c1,0.3,1.8,0.8,2.5,1.5s1.3,1.5,1.7,2.5s0.6,2.1,0.6,3.4c0,1.1-0.2,2.3-0.7,3.5
		c-0.5,1.2-1.2,2.3-2.1,3.3c-0.9,1-2.1,2-3.4,2.8c-1.3,0.8-2.9,1.5-4.7,2c0.1,1,0.2,1.9,0.4,2.7s0.4,1.5,0.7,2.1s0.6,1,1,1.3
		s0.8,0.5,1.3,0.5c0.3,0,0.6-0.1,0.9-0.2c0.3-0.1,0.5-0.2,0.8-0.4s0.5-0.4,0.7-0.8c-0.4-0.2-0.7-0.4-1-0.7s-0.4-0.6-0.5-0.9
		c-0.1-0.3-0.2-0.7-0.2-1c0-0.8,0.2-1.4,0.5-1.9s0.7-0.8,1.1-1.1s0.8-0.5,1.3-0.5c0.4-0.1,0.8-0.2,1-0.2c0.3,0,0.6,0.1,1,0.2
		c0.4,0.1,0.8,0.3,1.1,0.6c0.4,0.3,0.7,0.8,0.9,1.4C135.9,41.8,136.1,42.5,136.1,43.4L136.1,43.4z M130.2,28.5
		c0-0.6-0.1-1.1-0.2-1.6c-0.1-0.5-0.2-1-0.5-1.4c-0.2-0.4-0.4-0.7-0.7-0.9s-0.6-0.4-1-0.4c-0.7,0-1.2,0.3-1.6,0.9
		c-0.4,0.6-0.7,1.4-1,2.4s-0.4,2.1-0.5,3.4c-0.1,1.3-0.1,2.6-0.1,4v1.7c0.8-0.4,1.6-0.9,2.2-1.5c0.7-0.6,1.3-1.2,1.8-1.9
		c0.5-0.7,0.9-1.5,1.2-2.3C130.1,30.2,130.2,29.3,130.2,28.5L130.2,28.5z"/>
	<path id="path4185" class="st1" d="M145.5,49.4c-0.4,0-0.7,0-1.1,0c-0.3,0-0.7,0-1,0c-0.7,0-1.3,0-1.9,0c-0.6,0-1.1,0-1.5,0.1
		c-0.5,0-1,0.1-1.4,0.1c0.2-2.4,0.4-4.7,0.5-6.9c0.1-2.3,0.2-4.3,0.3-6c0.1-2.1,0.1-4,0.1-5.9c0-1.8,0-3.7-0.1-5.5
		c0-0.8-0.1-1.7-0.1-2.5c0-0.9-0.1-1.8-0.1-2.7c0-0.9-0.1-1.9-0.2-2.8c-0.1-0.9-0.2-1.8-0.3-2.7c0.7,0,1.3,0.1,1.9,0.1
		c0.6,0,1.1,0,1.6,0s1,0,1.4,0s0.8,0,1,0c0.3,0,0.6,0,0.9,0c-0.1,2-0.3,3.9-0.3,5.8c-0.1,1.9-0.1,3.6-0.2,5.1c0,1.8-0.1,3.5-0.1,5.1
		v1.5c1-1.2,1.9-2.5,2.7-3.9s1.5-2.8,2.1-4.3s1-3,1.4-4.6c0.3-1.5,0.5-3.1,0.5-4.5v-0.8l8.1,0.7c-1.4,2.5-2.6,4.6-3.6,6.5
		s-1.9,3.5-2.7,4.9c-0.7,1.4-1.3,2.5-1.8,3.4s-0.8,1.6-1.1,2.1c1.1,0.3,2,0.7,2.7,1.3c0.7,0.5,1.2,1.1,1.6,1.8s0.7,1.5,0.8,2.3
		c0.2,0.8,0.3,1.7,0.4,2.6c0.1,0.9,0.2,1.8,0.3,2.7s0.3,1.8,0.5,2.6c0.1,0.5,0.3,1,0.5,1.5s0.5,1,0.8,1.5c0.3,0.6,0.8,1.1,1.3,1.7
		l-6.7,0.1c-0.4-0.4-0.7-0.8-0.9-1.5c-0.2-0.6-0.4-1.2-0.5-1.8c-0.2-0.7-0.3-1.4-0.3-2.2c-0.1-0.9-0.1-1.7-0.2-2.5
		c0-0.8-0.1-1.6-0.1-2.4c-0.1-0.7-0.2-1.4-0.3-2c-0.2-0.6-0.4-1.2-0.8-1.6c-0.3-0.5-0.8-0.8-1.4-1.1c-0.6-0.3-1.3-0.4-2.2-0.4
		c-0.2,0-0.3,0-0.5,0s-0.4,0-0.5,0.1c0,1.7,0.1,3.9,0.2,6.5C145.2,43.3,145.4,46.2,145.5,49.4L145.5,49.4z"/>
	<path id="path4187" class="st1" d="M167.9,15.2c0,0.5-0.1,1-0.3,1.5c-0.2,0.4-0.5,0.8-0.8,1.2c-0.3,0.4-0.7,0.6-1.2,0.8
		c-0.4,0.2-0.9,0.3-1.4,0.3s-1-0.1-1.5-0.3c-0.4-0.2-0.8-0.5-1.2-0.8c-0.3-0.3-0.6-0.7-0.8-1.2s-0.3-0.9-0.3-1.5
		c0-0.5,0.1-1,0.3-1.4c0.2-0.5,0.5-0.9,0.8-1.2c0.3-0.3,0.7-0.6,1.2-0.8c0.5-0.2,0.9-0.3,1.5-0.3c0.5,0,1,0.1,1.4,0.3
		c0.5,0.2,0.9,0.5,1.2,0.8s0.6,0.7,0.8,1.2C167.8,14.2,167.9,14.7,167.9,15.2z M167.9,22.4c-0.1,1.3-0.2,2.6-0.3,4.1
		c-0.1,1.4-0.2,2.9-0.2,4.5c0,1.5-0.1,3.1-0.1,4.6s-0.1,3-0.1,4.4s0,2.7,0,3.9s0,2.2,0,3.1v2.7l-5.4,0.2c0-1.1,0-2.2,0-3.2
		s0-2.1,0-3.1c0-1.8,0-3.5,0-5.2s-0.1-3.4-0.2-5.1c-0.1-1.7-0.2-3.5-0.3-5.2c-0.1-1.8-0.2-3.6-0.4-5.5L167.9,22.4L167.9,22.4z"/>
	<path id="path4189" class="st1" d="M179.4,12.4c-0.1,1.6-0.2,3.2-0.3,4.8s-0.2,3.1-0.2,4.7c0.7,0,1.4-0.1,2.1-0.1
		c0.7,0,1.4-0.1,2.1-0.1l0.1,6.1c-0.8-0.1-1.5-0.2-2.3-0.3c-0.7-0.1-1.5-0.1-2.2-0.2c0,1.3-0.1,2.7-0.1,4c0,1.3,0,2.6,0,4
		c0,2.4,0,4.8,0.1,7.2s0.2,4.8,0.3,7.2l-6.2-0.1c0.2-3.7,0.4-7.4,0.5-11.2c0.1-3.7,0.2-7.5,0.3-11.3c-0.7,0-1.3,0.1-2,0.1
		s-1.3,0.1-2,0.1l0.2-5.6c0.7,0,1.3,0.1,1.9,0.1c0.7,0,1.3,0,1.9,0.1c0-1.6,0-3.2,0-4.7c0-1.6-0.1-3.2-0.1-4.8H179.4L179.4,12.4z"/>
	<path id="path4191" class="st1" d="M193.6,12.4c-0.1,1.6-0.2,3.2-0.3,4.8s-0.2,3.1-0.2,4.7c0.7,0,1.4-0.1,2.1-0.1
		c0.7,0,1.4-0.1,2.1-0.1l0.1,6.1c-0.8-0.1-1.5-0.2-2.3-0.3c-0.7-0.1-1.5-0.1-2.2-0.2c0,1.3-0.1,2.7-0.1,4c0,1.3,0,2.6,0,4
		c0,2.4,0,4.8,0.1,7.2s0.2,4.8,0.3,7.2l-6.2-0.1c0.2-3.7,0.4-7.4,0.5-11.2c0.1-3.7,0.2-7.5,0.3-11.3c-0.7,0-1.3,0.1-2,0.1
		s-1.3,0.1-2,0.1l0.2-5.6c0.7,0,1.3,0.1,1.9,0.1c0.7,0,1.3,0,1.9,0.1c0-1.6,0-3.2,0-4.7c0-1.6-0.1-3.2-0.1-4.8H193.6L193.6,12.4z"/>
	<path id="path4193" class="st1" d="M217.7,22.9c-0.1,0.9-0.2,1.9-0.2,2.9c-0.1,1-0.1,1.9-0.2,2.9c0,1-0.1,1.9-0.1,2.8
		c0,0.9-0.1,1.7-0.1,2.5c-0.1,1.9-0.1,3.7-0.2,5.5c-0.1,1.9-0.2,3.7-0.2,5.6c0,1.8-0.1,3.6-0.2,5.2c-0.1,1.7-0.3,3.2-0.6,4.6
		c-0.3,1.4-0.8,2.7-1.5,3.7s-1.6,1.9-2.8,2.5c-1.2,0.6-2.7,0.9-4.5,0.9c-1.4,0-2.5-0.2-3.4-0.6c-0.8-0.4-1.5-0.9-1.9-1.5
		s-0.7-1.2-0.9-1.8c-0.1-0.7-0.2-1.2-0.2-1.7s0.1-1,0.2-1.5c0.2-0.5,0.4-0.9,0.7-1.2s0.7-0.6,1.1-0.8c0.4-0.2,0.9-0.3,1.5-0.3
		s1.1,0.1,1.6,0.3c0.5,0.2,0.8,0.5,1.1,0.9s0.6,0.8,0.7,1.2c0.2,0.4,0.2,0.9,0.2,1.3c0,0.3-0.1,0.5-0.2,0.8
		c-0.1,0.2-0.2,0.5-0.4,0.7c-0.2,0.3-0.5,0.6-0.8,0.8c0.2,0.1,0.4,0.1,0.5,0.1c0.2,0,0.3,0,0.5,0c0.4,0,0.8-0.1,1.3-0.4
		c0.5-0.2,0.9-0.6,1.3-1.1s0.7-1.2,1-2s0.4-1.7,0.4-2.8c0-1.2,0-2.4,0-3.5s0-2.4,0.1-3.8c-0.5,1-1.1,1.8-1.7,2.4
		c-0.6,0.6-1.2,1-1.8,1.2c-0.6,0.3-1.3,0.5-1.9,0.6c-1.2,0-2.2-0.3-3.1-0.9c-0.9-0.6-1.6-1.4-2.2-2.5s-1-2.4-1.3-3.9
		s-0.4-3.2-0.4-5.1c0-5.2,0.4-10.1,1.1-14.9l6,0.7c-0.1,0.5-0.3,1.1-0.4,1.7c-0.1,0.6-0.2,1.3-0.3,1.9s-0.2,1.3-0.3,2
		s-0.1,1.3-0.2,1.9c-0.1,1.5-0.3,2.9-0.4,4.5c0,1.5,0,2.8,0.1,4c0.1,1.1,0.3,2,0.5,2.8c0.3,0.7,0.6,1.3,1,1.6c0.4,0.4,1,0.5,1.6,0.5
		c0.5-0.1,0.9-0.4,1.4-1c0.2-0.3,0.4-0.6,0.6-1s0.4-0.8,0.6-1.4s0.4-1.2,0.6-2s0.4-1.6,0.5-2.6c0-1.2,0.1-2.4,0.1-3.4c0-1,0-2,0-3
		c0-1.1,0-2.2-0.1-3.2c0-1-0.1-2.1-0.2-3.3C211.6,22.8,217.7,22.9,217.7,22.9z"/>
</g>
<rect x="0.5" y="0.5" class="st2" width="228.5" height="70.6"/>
</svg>
